<svg id="Layer_1" data-name="Layer 1" xmlns="http://www.w3.org/2000/svg" viewBox="0 0 480 197"><defs><style>.cls-1{fill:#ffff;}.cls-2{fill:none;stroke:#ffff;stroke-miterlimit:10;stroke-width:5px;}</style></defs><title>try1</title><path class="cls-1" d="M61.23,65.44A13.31,13.31,0,0,1,56,59.88a18.11,18.11,0,0,1-1.85-8.35V39.84A18.06,18.06,0,0,1,56,31.49a13.3,13.3,0,0,1,5.2-5.58,15,15,0,0,1,7.78-2,14.53,14.53,0,0,1,6.73,1.57,14.15,14.15,0,0,1,5.15,4.43,16.72,16.72,0,0,1,2.79,6.65H77.56A9.45,9.45,0,0,0,75.7,33a9.12,9.12,0,0,0-3.06-2.42,8.58,8.58,0,0,0-8.2.41,8.36,8.36,0,0,0-3,3.53,12.19,12.19,0,0,0-1.08,5.29V51.53a12.19,12.19,0,0,0,1.08,5.27A8.07,8.07,0,0,0,69,61.58a8.66,8.66,0,0,0,3.64-.8,8.39,8.39,0,0,0,3-2.34,9.26,9.26,0,0,0,1.86-3.69h6.12a16.35,16.35,0,0,1-2.81,6.65,14.44,14.44,0,0,1-5.15,4.44A14.66,14.66,0,0,1,69,67.41,15.09,15.09,0,0,1,61.23,65.44Z"/><path class="cls-1" d="M92.91,65.08c-1.85-1.56-2.78-3.91-2.78-7.08,0-3,.85-5.26,2.55-6.77S97,49,100.38,49H109l.41,4.8h-9a5.12,5.12,0,0,0-3.5,1A4.09,4.09,0,0,0,95.75,58a4,4,0,0,0,1.54,3.43A8,8,0,0,0,102,62.54a13.51,13.51,0,0,0,5.11-.73,2.41,2.41,0,0,0,1.68-2.29l.62,4.28a7,7,0,0,1-1.95,2A8.39,8.39,0,0,1,104.75,67a13.86,13.86,0,0,1-3.43.4Q95.7,67.41,92.91,65.08Zm15.85-17.39A6.46,6.46,0,0,0,107.17,43a6,6,0,0,0-4.53-1.65,11.67,11.67,0,0,0-3.56.56A10.67,10.67,0,0,0,96,43.5l-4.37-3a11.5,11.5,0,0,1,4.56-3.24,16.45,16.45,0,0,1,6.28-1.15,14.49,14.49,0,0,1,6.48,1.33,9.31,9.31,0,0,1,4.1,3.87,12.36,12.36,0,0,1,1.41,6.1V67h-5.69Z"/><path class="cls-1" d="M123.53,36.56h6V67h-6Zm18.45,12a6.91,6.91,0,0,0-1.67-5,6.14,6.14,0,0,0-4.68-1.76,6.25,6.25,0,0,0-4.53,1.55,5.84,5.84,0,0,0-1.6,4.37l-.61-5.86a10.83,10.83,0,0,1,3.68-4.25,8.88,8.88,0,0,1,5-1.49,9.46,9.46,0,0,1,7.66,3.23Q148,42.59,148,48.51V67h-6Z"/><path class="cls-1" d="M162.21,65.85a10.46,10.46,0,0,1-4.49-4.51,15.13,15.13,0,0,1-1.56-7.15v-5a14.87,14.87,0,0,1,1.56-7.06,10.47,10.47,0,0,1,4.49-4.47,15.3,15.3,0,0,1,7.11-1.53,17,17,0,0,1,4.47.57,13.33,13.33,0,0,1,3.76,1.65A10.3,10.3,0,0,1,180.33,41L176,44.85a9,9,0,0,0-3-2.26,8.5,8.5,0,0,0-3.6-.79,7.15,7.15,0,0,0-5.36,1.93,7.45,7.45,0,0,0-1.91,5.45v5A7.72,7.72,0,0,0,164,59.76a7.11,7.11,0,0,0,5.38,2,8.07,8.07,0,0,0,3.63-.85,8.73,8.73,0,0,0,3-2.4l4.3,4.16a10.4,10.4,0,0,1-2.81,2.59,13,13,0,0,1-3.76,1.63,17.31,17.31,0,0,1-4.44.56A15.05,15.05,0,0,1,162.21,65.85Z"/><path class="cls-1" d="M192.17,65.82a10.6,10.6,0,0,1-4.56-4.64,16.15,16.15,0,0,1-1.56-7.4V50.35a17.86,17.86,0,0,1,1.51-7.7,10.7,10.7,0,0,1,4.38-4.86,13.42,13.42,0,0,1,6.91-1.67,11,11,0,0,1,6.5,1.9,11.86,11.86,0,0,1,4.12,5.51,23.48,23.48,0,0,1,1.42,8.64v2H190.38v-4.8h14.83a10.32,10.32,0,0,0-1.92-5.79,5.4,5.4,0,0,0-4.44-2.06,6.48,6.48,0,0,0-5.26,2.22,9.58,9.58,0,0,0-1.86,6.3V53.9a7.91,7.91,0,0,0,2,5.8,7.59,7.59,0,0,0,5.66,2A9.38,9.38,0,0,0,203,61a10.31,10.31,0,0,0,3.19-2.05l3.93,3.92A16.37,16.37,0,0,1,205,66.22a14.44,14.44,0,0,1-5.65,1.19A15.15,15.15,0,0,1,192.17,65.82Z"/><path class="cls-1" d="M219.09,36.56h6V67h-6Zm14.74,5.74a7.26,7.26,0,0,0-2.78-.5,5.93,5.93,0,0,0-4.41,1.57,5.85,5.85,0,0,0-1.57,4.35l-.61-5.86a11,11,0,0,1,3.63-4.23A8.53,8.53,0,0,1,233,36.12a11.11,11.11,0,0,1,3.76.6,8.39,8.39,0,0,1,2.95,1.77l-3.9,5.27A5,5,0,0,0,233.83,42.3Z"/><path class="cls-1" d="M195.84,96.37h6V139h-6Zm3.72,18.78H223.2v5.68H199.56ZM220,96.37h6V139h-6Z"/><path class="cls-1" d="M240.87,137.85a10.15,10.15,0,0,1-4.29-4.52,15.92,15.92,0,0,1-1.48-7.17v-5a15.54,15.54,0,0,1,1.48-7.07,10.13,10.13,0,0,1,4.29-4.49,15.72,15.72,0,0,1,13.53,0,10.13,10.13,0,0,1,4.29,4.49,15.54,15.54,0,0,1,1.48,7.07v5a15.69,15.69,0,0,1-1.48,7.11,10.18,10.18,0,0,1-4.29,4.49,15.45,15.45,0,0,1-13.53,0Zm11.61-6.09a8.08,8.08,0,0,0,1.72-5.51v-5a8,8,0,0,0-1.72-5.48,7,7,0,0,0-9.69,0,8,8,0,0,0-1.72,5.48v5a8.08,8.08,0,0,0,1.72,5.51,7,7,0,0,0,9.69,0Z"/><path class="cls-1" d="M274.37,138.88A18.5,18.5,0,0,1,270,137.3a17.58,17.58,0,0,1-3.78-2.64l3.54-4.37a20.45,20.45,0,0,0,4.9,2.82,13.36,13.36,0,0,0,4.8.93,10.29,10.29,0,0,0,5.32-1.09,3.64,3.64,0,0,0,1.77-3.3,2.57,2.57,0,0,0-1-2.2,5.43,5.43,0,0,0-2.4-1c-.95-.17-2.3-.32-4-.45l-.5,0-.5,0-.23,0h-.24a23.71,23.71,0,0,1-5-.87,6.82,6.82,0,0,1-3.42-2.35,7.87,7.87,0,0,1-1.36-5,10.07,10.07,0,0,1,1.32-5.36,8,8,0,0,1,3.92-3.2,17.21,17.21,0,0,1,6.54-1.07,22,22,0,0,1,4.52.44,19.77,19.77,0,0,1,4.12,1.3,20.54,20.54,0,0,1,3.78,2.18l-3.6,4.37a20.25,20.25,0,0,0-4.5-2.2,13.7,13.7,0,0,0-4.32-.73,8.09,8.09,0,0,0-4.57,1,3.51,3.51,0,0,0-1.53,3.12,2.1,2.1,0,0,0,.87,1.84,4.92,4.92,0,0,0,2.18.82q1.32.21,3.75.36l.37,0,.39,0h.18a.51.51,0,0,1,.17,0,26.24,26.24,0,0,1,5.44.85,7.31,7.31,0,0,1,3.76,2.55,8.63,8.63,0,0,1,1.53,5.51,9.7,9.7,0,0,1-1.41,5.43,8.48,8.48,0,0,1-4.23,3.24,20.13,20.13,0,0,1-7.11,1.09A23.22,23.22,0,0,1,274.37,138.88Z"/><path class="cls-1" d="M299.78,108.56h6v42.77h-6ZM308.46,138a7.94,7.94,0,0,1-3.11-3.85l.41-6.36a7.26,7.26,0,0,0,.7,3.34,4.89,4.89,0,0,0,2,2.11,6.63,6.63,0,0,0,3.24.73,5.85,5.85,0,0,0,4.58-1.8,7.28,7.28,0,0,0,1.63-5.08v-6.59a7.56,7.56,0,0,0-1.63-5.19,5.77,5.77,0,0,0-4.58-1.84,6.86,6.86,0,0,0-3.24.7,4.74,4.74,0,0,0-2,2.07,7,7,0,0,0-.7,3.26l-.62-5.86a10.53,10.53,0,0,1,3.61-4.11,8.83,8.83,0,0,1,4.95-1.45,10.09,10.09,0,0,1,5.52,1.45,9,9,0,0,1,3.5,4.23,16.91,16.91,0,0,1,1.2,6.71v6.62a16.13,16.13,0,0,1-1.23,6.62,9.16,9.16,0,0,1-3.6,4.21,10.75,10.75,0,0,1-5.68,1.45A8.88,8.88,0,0,1,308.46,138Z"/><path class="cls-1" d="M332.42,96.37h6v6h-6Zm0,12.19h6V139h-6Z"/><path class="cls-1" d="M345.13,108.56h13.72V114H345.13ZM350,137.08q-1.71-2-1.71-6V99.71h6v31.4a2.82,2.82,0,0,0,.44,1.72,1.48,1.48,0,0,0,1.28.6h2.88v5.68h-3.46Q351.7,139.11,350,137.08Z"/><path class="cls-1" d="M368.37,137.08c-1.86-1.56-2.79-3.91-2.79-7.08,0-3,.85-5.26,2.55-6.77s4.27-2.25,7.71-2.25h8.64l.41,4.8h-9a5.1,5.1,0,0,0-3.5,1,4.05,4.05,0,0,0-1.16,3.18,3.94,3.94,0,0,0,1.54,3.43,8,8,0,0,0,4.67,1.11,13.44,13.44,0,0,0,5.11-.73,2.41,2.41,0,0,0,1.69-2.29l.61,4.28a6.84,6.84,0,0,1-1.95,2A8.29,8.29,0,0,1,380.2,139a13.78,13.78,0,0,1-3.42.4C373,139.41,370.22,138.63,368.37,137.08Zm15.85-17.39a6.46,6.46,0,0,0-1.6-4.65,6,6,0,0,0-4.53-1.65,11.72,11.72,0,0,0-3.56.56,10.67,10.67,0,0,0-3.09,1.55l-4.36-3a11.36,11.36,0,0,1,4.55-3.24,16.5,16.5,0,0,1,6.29-1.15,14.42,14.42,0,0,1,6.47,1.33,9.21,9.21,0,0,1,4.1,3.87,12.36,12.36,0,0,1,1.41,6.1V139h-5.68Z"/><path class="cls-1" d="M405,131.11a2.69,2.69,0,0,0,.48,1.72,1.65,1.65,0,0,0,1.36.6h2.82v5.68H406.1a6.64,6.64,0,0,1-5.26-2.11,8.67,8.67,0,0,1-1.86-5.94V96.37h6Z"/><path class="cls-2" d="M69.64,11.67C59,3.48,45.45,3.81,34.58,8.88,17,17.07,18.53,50.15,18.85,62.42c.14,5.44,2.22,59.26,50.79,87.07,29.17,16.71,70.06,19,91.69,0,2.83-2.5,10.64-9.56,13.48-21.42,2.89-12.06.44-28.28-9-35.38C151,81.5,124.13,97,111,109.45c-30.13,28.64-24.41,76.1-23.37,83.81"/></svg>